<?xml version="1.0" encoding="utf-8"?>
<!-- Generator: Adobe Illustrator 24.0.0, SVG Export Plug-In . SVG Version: 6.00 Build 0)  -->
<svg version="1.1" id="圖層_1" xmlns="http://www.w3.org/2000/svg" xmlns:xlink="http://www.w3.org/1999/xlink" x="0px" y="0px"
	 viewBox="0 0 265 60" style="enable-background:new 0 0 265 60;" xml:space="preserve">
<style type="text/css">
	.st0{fill:#36CCB5;}
</style>
<g>
	<path class="st0" d="M1.6,58.5V0.18l28.01,19.21L57.51,0.18V58.5H1.6z M22.63,54.3c1.43,0,2.69-0.57,3.79-1.72
		c1.1-1.15,1.65-2.46,1.65-3.96c0-1.6-0.52-2.95-1.57-4.06c-1.05-1.11-2.33-1.66-3.87-1.66c-1.56,0-2.87,0.54-3.93,1.62
		c-1.06,1.08-1.59,2.44-1.59,4.1c0,1.63,0.53,2.98,1.59,4.06C19.76,53.76,21.07,54.3,22.63,54.3z M36.04,54.3
		c1.43,0,2.69-0.57,3.79-1.72c1.1-1.15,1.65-2.46,1.65-3.96c0-1.6-0.52-2.95-1.57-4.06c-1.05-1.11-2.34-1.66-3.87-1.66
		c-1.56,0-2.87,0.54-3.93,1.62c-1.06,1.08-1.59,2.44-1.59,4.1c0,1.63,0.53,2.98,1.59,4.06C33.17,53.76,34.48,54.3,36.04,54.3z"/>
	<path class="st0" d="M92.43,58.5H69.38V1.13h23.05V58.5z"/>
	<path class="st0" d="M103.02,50.53l7.54-10.16c-2.8-2.33-4.94-5.02-6.41-8.07c-1.47-3.05-2.2-6.34-2.2-9.86
		c0-6.3,2.11-11.58,6.33-15.85c4.22-4.27,9.4-6.41,15.53-6.41c3.2,0,6.28,0.64,9.23,1.92c2.95,1.28,5.72,3.21,8.31,5.77l-6.31,8.21
		c3.33,2.25,5.91,5.09,7.74,8.53c1.83,3.44,2.74,7.18,2.74,11.23c0,6.48-2.23,12.06-6.69,16.72c-4.46,4.67-9.79,7-16.01,7
		c-3.44,0-6.8-0.75-10.1-2.26C109.43,55.81,106.2,53.54,103.02,50.53z M119.09,46.88c1.45,0,2.72-0.56,3.81-1.68
		c1.08-1.12,1.63-2.43,1.63-3.94c0-1.64-0.52-3.01-1.57-4.12c-1.05-1.1-2.33-1.66-3.87-1.66c-1.56,0-2.87,0.55-3.93,1.64
		s-1.59,2.47-1.59,4.14c0,1.62,0.53,2.96,1.59,4.02C116.22,46.35,117.53,46.88,119.09,46.88z"/>
	<path class="st0" d="M178.26,58.5H155.2V1.13h23.05v11.55h4.17V1.13h22.18V58.5h-22.18V26.48c1.21-0.4,2.14-1.01,2.78-1.84
		c0.64-0.83,0.95-1.84,0.95-3.04c0-1.59-0.54-2.93-1.63-4.03c-1.09-1.1-2.42-1.65-4-1.65c-1.63,0-3,0.55-4.1,1.65
		c-1.1,1.1-1.65,2.47-1.65,4.11c0,1.14,0.31,2.13,0.93,2.98c0.62,0.85,1.47,1.45,2.56,1.83V58.5z"/>
	<path class="st0" d="M209.6,58.5l26.9-58.33l27.14,58.33H209.6z M230.83,39.26c0,1.58,0.55,2.92,1.65,4.02
		c1.1,1.1,2.44,1.65,4.02,1.65c1.58,0,2.93-0.56,4.04-1.67c1.12-1.11,1.67-2.45,1.67-4c0-1.58-0.56-2.92-1.67-4.04
		c-1.12-1.12-2.46-1.67-4.04-1.67c-1.58,0-2.92,0.55-4.02,1.65C231.38,36.3,230.83,37.66,230.83,39.26z"/>
</g>
</svg>
